HIERARCHY
ROOT Hips
{
	OFFSET 0.000000 0.000000 0.000000 
	CHANNELS 6 Xposition Yposition Zposition Zrotation Yrotation Xrotation
	JOINT LeftUpLeg
	{
		OFFSET 1.363060 -1.794630 0.839290 
		CHANNELS 3 Zrotation Yrotation Xrotation
		JOINT LeftLeg
		{
			OFFSET 2.448110 -6.726130 0.000000 
			CHANNELS 3 Zrotation Yrotation Xrotation
			JOINT LeftFoot
			{
				OFFSET 2.562200 -7.039590 0.000000 
				CHANNELS 3 Zrotation Yrotation Xrotation
				JOINT LeftToeBase
				{
					OFFSET 0.157640 -0.433110 2.322550 
					CHANNELS 3 Zrotation Yrotation Xrotation
					End Site
					{
						OFFSET 0.000000 0.000000 0.000000 
					}
				}
			}
		}
	}
	JOINT RightUpLeg
	{
		OFFSET -1.305520 -1.794630 0.839290 
		CHANNELS 3 Zrotation Yrotation Xrotation
		JOINT RightLeg
		{
			OFFSET -2.542530 -6.985550 0.000000 
			CHANNELS 3 Zrotation Yrotation Xrotation
			JOINT RightFoot
			{
				OFFSET -2.568260 -7.056230 0.000000 
				CHANNELS 3 Zrotation Yrotation Xrotation
				JOINT RightToeBase
				{
					OFFSET -0.164730 -0.452590 2.363150 
					CHANNELS 3 Zrotation Yrotation Xrotation
					End Site
					{
						OFFSET 0.000000 0.000000 0.000000 
					}
				}
			}
		}
	}
	JOINT Spine
	{
		OFFSET 0.028270 2.035590 -0.193380 
		CHANNELS 3 Zrotation Yrotation Xrotation
		JOINT Spine1
		{
			OFFSET 0.056720 2.048850 -0.042750 
			CHANNELS 3 Zrotation Yrotation Xrotation
			JOINT Neck1
			{
				OFFSET -0.054170 1.746240 0.172020 
				CHANNELS 3 Zrotation Yrotation Xrotation
				JOINT Head
				{
					OFFSET 0.104070 1.761360 -0.123970 
					CHANNELS 3 Zrotation Yrotation Xrotation
					End Site
					{
						OFFSET 0.000000 0.000000 0.000000 
					}
				}
			}
			JOINT LeftArm
			{
				OFFSET 3.362410 1.200890 -0.311210 
				CHANNELS 3 Zrotation Yrotation Xrotation
				JOINT LeftForeArm
				{
					OFFSET 4.983000 -0.000000 -0.000000 
					CHANNELS 3 Zrotation Yrotation Xrotation
					JOINT LeftHand
					{
						OFFSET 3.483560 -0.000000 -0.000000 
						CHANNELS 3 Zrotation Yrotation Xrotation
						JOINT LeftHandIndex1
						{
							OFFSET 0.715260 -0.000000 -0.000000 
							CHANNELS 3 Zrotation Yrotation Xrotation
							End Site
							{
								OFFSET 0.000000 0.000000 0.000000 
							}
						}
					}
				}
			}
			JOINT RightArm
			{
				OFFSET -3.136600 1.374050 -0.404650 
				CHANNELS 3 Zrotation Yrotation Xrotation
				JOINT RightForeArm
				{
					OFFSET -5.241900 -0.000000 -0.000000 
					CHANNELS 3 Zrotation Yrotation Xrotation
					JOINT RightHand
					{
						OFFSET -3.444170 -0.000000 -0.000000 
						CHANNELS 3 Zrotation Yrotation Xrotation
						JOINT RightHandIndex1
						{
							OFFSET -0.622530 -0.000000 -0.000000 
							CHANNELS 3 Zrotation Yrotation Xrotation
							End Site
							{
								OFFSET 0.000000 0.000000 0.000000 
							}
						}
					}
				}
			}
		}
	}
}
MOTION
Frames: 13
Frame Time: 0.041667
2.955210 17.609492 -6.267756 8.737947 85.753682 6.371599 -30.308532 17.443193 -3.088893 1.984912 8.033927 23.527739 0.412734 -5.668121 4.242378 2.532600 -9.897000 -28.643900 27.044779 11.535104 -12.895036 -8.153289 -16.455338 52.328339 0.592716 -9.995478 -13.802806 -0.061700 1.603000 -4.409700 0.799944 -0.579417 -0.765405 -2.357198 -0.370538 0.849131 6.813388 -0.351313 9.598659 0.591600 0.219600 4.801300 -78.486475 -4.402536 14.298674 9.002791 -17.703000 -2.077869 -0.786046 -0.081641 -16.740385 -7.125000 0.000000 0.000000 80.714627 -1.157142 18.297406 -9.746459 19.776467 -2.248605 0.533332 -0.513770 6.179888 7.125000 0.000000 0.000000 
3.054465 17.610199 -6.266040 9.655362 85.800785 7.379228 -30.330624 17.579327 -2.623401 1.934237 7.925375 23.202675 0.408290 -5.544072 4.202371 2.559300 -9.945000 -28.798700 26.842242 12.016453 -13.838843 -7.886977 -16.309573 51.417417 0.519758 -9.619520 -14.092725 -0.072300 1.735200 -4.774400 0.801632 -0.613058 -0.758255 -2.319895 -0.386631 0.847109 6.787547 -0.338401 9.582516 0.576000 0.223800 4.800100 -78.489795 -4.550746 14.534886 9.086342 -17.805628 -2.100501 -0.786547 -0.081831 -16.808126 -7.125000 0.000000 0.000000 80.679803 -1.092228 18.288702 -9.748647 19.772564 -2.248673 0.531514 -0.515428 6.178219 7.125000 0.000000 0.000000 
3.154325 17.613329 -6.263818 10.540752 85.851216 8.367134 -30.339030 17.759332 -2.117897 1.865945 7.776535 22.758327 0.405011 -5.440851 4.215794 2.584000 -9.989100 -28.941500 26.637456 12.478076 -14.762174 -7.602897 -16.140087 50.426301 0.480475 -9.437863 -14.281841 -0.090300 1.938400 -5.335500 0.804543 -0.646906 -0.753669 -2.277621 -0.402881 0.840518 6.764547 -0.326626 9.562390 0.561300 0.227400 4.795300 -78.501511 -4.682290 14.784431 9.172466 -17.912733 -2.124019 -0.787286 -0.082596 -16.876252 -7.125000 0.000000 0.000000 80.644874 -1.034414 18.269015 -9.753714 19.771763 -2.249713 0.529634 -0.517240 6.192478 7.125000 0.000000 0.000000 
3.254690 17.618277 -6.261193 11.358984 85.904310 9.293803 -30.325554 17.994972 -1.574478 1.782509 7.590791 22.207183 0.403529 -5.369662 4.281193 2.606700 -10.029300 -29.071800 26.437552 12.919255 -15.656297 -7.304791 -15.948049 49.366947 0.463010 -9.398388 -14.442689 -0.110000 2.138700 -5.889100 0.809182 -0.680481 -0.750380 -2.230003 -0.418945 0.831869 6.745442 -0.315652 9.538829 0.548500 0.230500 4.787300 -78.522900 -4.800525 15.037641 9.257068 -18.018644 -2.146996 -0.787527 -0.083194 -16.931637 -7.125000 0.000000 0.000000 80.606215 -0.977648 18.237405 -9.756937 19.767963 -2.250285 0.527999 -0.518722 6.214306 7.125000 0.000000 0.000000 
3.356064 17.624032 -6.258164 12.133511 85.962674 10.175218 -30.287959 18.279198 -0.987065 1.687272 7.372313 21.562764 0.403035 -5.311808 4.388245 2.611200 -10.037300 -29.097700 26.243148 13.335167 -16.509366 -6.996568 -15.734134 48.249740 0.463776 -9.478179 -14.581136 -0.125500 2.284100 -6.291500 0.814772 -0.716249 -0.748430 -2.180245 -0.436041 0.819059 6.733521 -0.304738 9.514698 0.540600 0.233700 4.778000 -78.553128 -4.900548 15.290983 9.341441 -18.124197 -2.169584 -0.787011 -0.083483 -16.969432 -7.125000 0.000000 0.000000 80.565732 -0.926034 18.201228 -9.757266 19.760500 -2.249936 0.526386 -0.519994 6.236656 7.125000 0.000000 0.000000 
3.458347 17.629989 -6.254731 12.809804 86.023400 10.955778 -30.223747 18.604886 -0.353907 1.582058 7.123222 20.832977 0.403436 -5.268657 4.532244 2.615300 -10.044600 -29.121400 26.056985 13.732803 -17.316910 -6.681444 -15.499706 47.084158 0.476789 -9.634853 -14.700262 -0.133700 2.356500 -6.491800 0.821453 -0.753381 -0.747434 -2.131296 -0.453767 0.804038 6.724211 -0.293481 9.493288 0.534100 0.237400 4.769700 -78.591636 -4.982332 15.541479 9.426315 -18.230284 -2.191760 -0.785231 -0.083538 -16.991713 -7.125000 0.000000 0.000000 80.522574 -0.877733 18.163594 -9.753067 19.747703 -2.248226 0.525556 -0.520331 6.249668 7.125000 0.000000 0.000000 
3.561842 17.635846 -6.250995 13.459128 86.078828 11.704634 -30.138666 18.974021 0.325844 1.468348 6.844314 20.020958 0.404960 -5.235519 4.710751 2.615100 -10.044300 -29.120200 25.871443 14.120417 -18.078249 -6.362353 -15.246264 45.878570 0.500469 -9.847014 -14.777026 -0.131900 2.340900 -6.448900 0.827988 -0.788381 -0.746854 -2.084036 -0.470218 0.789480 6.719883 -0.282672 9.476301 0.530800 0.241300 4.763500 -78.635221 -5.045702 15.794902 9.511877 -18.337385 -2.213652 -0.782589 -0.083540 -17.002708 -7.125000 0.000000 0.000000 80.478621 -0.833163 18.126859 -9.743418 19.728634 -2.245069 0.524736 -0.520878 6.246927 7.125000 0.000000 0.000000 
3.666650 17.641803 -6.246855 14.112867 86.133049 12.455097 -30.037808 19.363291 1.059749 1.347511 6.534706 19.125495 0.406917 -5.201080 4.918688 2.620700 -10.054100 -29.152100 25.681805 14.503599 -18.797006 -6.041867 -14.975177 44.639491 0.536186 -10.104492 -14.768171 -0.121700 2.248600 -6.193200 0.833822 -0.823169 -0.747252 -2.040796 -0.486526 0.774459 6.718331 -0.273473 9.464423 0.528700 0.245000 4.761100 -78.680768 -5.089850 16.050003 9.599064 -18.446725 -2.235705 -0.779332 -0.083492 -17.004763 -7.125000 0.000000 0.000000 80.436888 -0.793686 18.092826 -9.727703 19.702630 -2.240400 0.524449 -0.521248 6.230594 7.125000 0.000000 0.000000 
3.772669 17.647356 -6.242413 14.768087 86.178686 13.206463 -29.925795 19.769224 1.847485 1.220158 6.192505 18.141956 0.409305 -5.156168 5.159035 2.634700 -10.078900 -29.232600 25.483452 14.890702 -19.477378 -5.722254 -14.688002 43.373686 0.582973 -10.384702 -14.633297 -0.104100 2.080200 -5.727400 0.838547 -0.854614 -0.747813 -2.002136 -0.501029 0.763260 6.718432 -0.265253 9.457472 0.527000 0.248700 4.761900 -78.724631 -5.116483 16.318813 9.689799 -18.561550 -2.258972 -0.775727 -0.083555 -17.012731 -7.125000 0.000000 0.000000 80.398930 -0.758097 18.057908 -9.708606 19.673343 -2.235126 0.524536 -0.521724 6.213565 7.125000 0.000000 0.000000 
3.879698 17.652506 -6.237162 15.429432 86.222819 13.971725 -29.803671 20.177815 2.683801 1.087853 5.816093 17.067086 0.411657 -5.090177 5.434838 2.654400 -10.113300 -29.344400 25.276689 15.288809 -20.131072 -5.405378 -14.386858 42.087050 0.641441 -10.686607 -14.347811 -0.081700 1.843800 -5.074300 0.842227 -0.884508 -0.750533 -1.967300 -0.514901 0.751111 6.722305 -0.258992 9.454046 0.526700 0.252000 4.765400 -78.763029 -5.125998 16.600802 9.781080 -18.678380 -2.282841 -0.772622 -0.083697 -17.022702 -7.125000 0.000000 0.000000 80.368286 -0.728209 18.019929 -9.684331 19.638153 -2.228257 0.524622 -0.522045 6.197432 7.125000 0.000000 0.000000 
3.987232 17.657049 -6.231003 16.141289 86.268213 14.801827 -29.678901 20.573797 3.565447 0.952479 5.404211 15.898585 0.413609 -4.988570 5.743218 2.674100 -10.147800 -29.456700 25.056730 15.700920 -20.765518 -5.093373 -14.073630 40.785540 0.719925 -11.049113 -13.845094 -0.061900 1.604700 -4.414400 0.846365 -0.915072 -0.753976 -1.926581 -0.529192 0.747438 6.725946 -0.254365 9.451132 0.525900 0.254600 4.770100 -78.800068 -5.129590 16.891701 9.870777 -18.795284 -2.307245 -0.770526 -0.083832 -17.035910 -7.125000 0.000000 0.000000 80.338517 -0.695763 17.976114 -9.657297 19.599308 -2.220612 0.524867 -0.522070 6.199676 7.125000 0.000000 0.000000 
4.095473 17.660987 -6.223733 16.865510 86.312165 15.661325 -29.546498 20.975311 4.487093 0.814973 4.954052 14.629321 0.415370 -4.858501 6.086488 2.695600 -10.185100 -29.578300 24.825789 16.134135 -21.385090 -4.788047 -13.750162 39.475170 0.814343 -11.466577 -13.141680 -0.042700 1.333800 -3.667800 0.851229 -0.944210 -0.758610 -1.879339 -0.543104 0.750836 6.730806 -0.249483 9.447021 0.525400 0.257200 4.774000 -78.836431 -5.127032 17.187902 9.958042 -18.910635 -2.331433 -0.768918 -0.084196 -17.047205 -7.125000 0.000000 0.000000 80.308979 -0.660028 17.923598 -9.626650 19.555323 -2.211723 0.525076 -0.521718 6.222465 7.125000 0.000000 0.000000 
4.204521 17.663815 -6.215655 17.700160 86.356368 16.647892 -29.412165 21.382037 5.457506 0.676834 4.460857 13.247273 0.416544 -4.681952 6.465770 2.700400 -10.193500 -29.605800 24.579045 16.579901 -21.990197 -4.491049 -13.417811 38.161383 0.922335 -11.944086 -12.240421 -0.027000 1.061100 -2.916800 0.856087 -0.973968 -0.766116 -1.826188 -0.557541 0.754797 6.737733 -0.244397 9.441074 0.526400 0.259800 4.776300 -78.873847 -5.113589 17.477365 10.040294 -19.020777 -2.354515 -0.767427 -0.084239 -17.046394 -7.125000 0.000000 0.000000 80.280118 -0.629228 17.863879 -9.593692 19.508332 -2.202000 0.524699 -0.521488 6.270389 7.125000 0.000000 0.000000 
